<svg width="84" height="88" viewBox="0 0 84 88" fill="none" xmlns="http://www.w3.org/2000/svg">
<path d="M43.7349 -3.5H43.4706L43.3218 -3.28158L0.586828 59.4242L0.5 59.5516V59.7057V62.5551V63.0551H1H21.2232L15.0358 89.8876L14.8946 90.5H15.5231H34.5915H34.8274L34.9774 90.318L85.2568 29.2996L85.9308 28.4816H84.871H58.483L66.1398 -1.4118L66.2683 -1.91314L65.7628 -2.02422C61.2779 -3.0098 56.1304 -3.5 50.3246 -3.5H43.7349ZM41.5567 39.4634H59.1158L29.5422 77.0708L38.6478 51.6074L38.8868 50.939H38.177H23.8778L47.6023 13.5553L41.0726 38.8384L40.9112 39.4634H41.5567ZM40.8725 -2.71842L41.4052 -3.5H40.4594H1H0.5V-3V54.8994V56.5209L1.41317 55.181L40.8725 -2.71842ZM1 64.7743H0.5V65.2743V90V90.5H1H12.7502H13.1481L13.2375 90.1124L18.939 65.3866L19.0802 64.7743H18.4518H1ZM37.715 89.682L37.041 90.5H38.1009H52.9623C65.6692 90.5 75.4542 88.2798 82.2531 83.7739L82.2568 83.7714C89.0782 79.1601 92.5 72.6711 92.5 64.3586C92.5 58.7708 90.9769 53.9661 87.9127 49.9714C85.3353 46.6114 81.8698 43.938 77.533 41.9448L77.1832 41.7841L76.9383 42.0812L37.715 89.682ZM87.1304 26.7624H87.533L87.6189 26.3691C87.972 24.7516 88.1478 23.0658 88.1478 21.3129C88.1478 13.7892 84.8954 7.75055 78.4402 3.23417C75.6683 1.26794 72.3225 -0.26175 68.4127 -1.36258L67.9198 -1.50133L67.7928 -1.00535L60.8402 26.1384L60.6804 26.7624H61.3246H87.1304Z" stroke="white"/>
</svg>
