<svg width="56" height="88" viewBox="0 0 56 88" fill="none" xmlns="http://www.w3.org/2000/svg">
<mask id="path-1-outside-1" maskUnits="userSpaceOnUse" x="0" y="-4" width="113" height="93" fill="black">
<rect fill="white" y="-4" width="113" height="93"/>
<path d="M82.6443 56.1849L82.6446 56.2397C85.8167 55.5341 88.9119 54.6675 91.8246 53.6196C101.917 49.9885 109.385 44.367 110.851 36.0959L110.832 29.6754C109.406 21.2986 102.668 15.0128 93.1702 10.6458C89.1037 8.77591 84.5789 7.28422 79.8458 6.15302L72.8989 17.7401C77.6618 18.5993 82.2609 19.8437 86.336 21.5051C95.1158 25.0847 101.955 30.8336 101.955 39.2601C101.955 43.5403 99.8395 46.9676 96.6006 49.6411C93.3904 52.2908 89.0233 54.2537 84.2998 55.7018C83.7537 55.8693 83.2015 56.0302 82.6443 56.1849Z"/>
<path d="M56.0566 66.8426C59.6721 66.8426 62.7382 64.5405 63.8078 61.3525C67.2718 61.4203 70.3305 61.4203 73.7291 61.4203L62.6786 79.81H49.0595L37.5668 61.4203C41.103 61.4203 44.8414 61.4203 48.3161 61.384C49.3952 64.5557 52.453 66.8426 56.0566 66.8426Z"/>
<path d="M38.1851 55.817C41.5892 56.332 44.9974 56.6448 48.1734 56.804C49.1004 53.3923 52.2785 50.8786 56.0566 50.8786C59.7547 50.8786 62.8781 53.287 63.878 56.5886C66.8274 56.3676 69.978 56.0174 73.1406 55.5069C75.149 54.7766 76.871 53.8886 78.146 52.8343C79.6945 51.5537 80.5262 50.0849 80.5262 48.3383C80.5262 44.7117 77.6105 41.8528 72.6766 39.8376C69.3391 38.4743 65.3 37.6033 61.2374 37.1911L56.2619 45.49L51.0723 37.0617C46.4287 37.3722 41.9651 38.1738 38.411 39.6013C33.6787 41.5022 30.9073 44.3379 30.9073 48.3383C30.9073 50.2761 31.7692 51.8416 33.3048 53.1553C34.5519 54.2222 36.2285 55.105 38.1851 55.817Z"/>
<path d="M82.8452 88L82.6922 63.776C83.0237 63.8737 83.353 63.9737 83.6799 64.0762C88.2666 65.5144 92.2796 67.3995 95.1229 69.7997C97.9369 72.1753 99.5581 75.0065 99.5581 78.4386C99.5581 82.1017 98.0436 85.2859 95.3721 88H82.8452Z"/>
<path d="M102.277 78.4386C102.277 82.1027 101.043 85.2772 98.9458 88H111L110.964 75.4885C110.229 74.5818 109.39 73.7201 108.458 72.9004C104.624 69.5293 99.2426 66.9043 93.1378 64.9104C92.7329 64.7781 92.3252 64.6488 91.915 64.5223C93.7627 65.4783 95.4483 66.5606 96.8988 67.7851C100.16 70.5379 102.277 74.056 102.277 78.4386Z"/>
<path d="M82.6651 59.4817C86.5273 60.2428 90.3652 61.1999 93.9985 62.3866C100.284 64.4396 106.055 67.2104 110.275 70.9213C110.505 71.124 110.731 71.3297 110.953 71.5383L110.872 43.4237C107.184 49.2739 100.428 53.3592 92.7628 56.1168C89.5542 57.2712 86.1445 58.2108 82.6618 58.9624L82.6651 59.4817Z"/>
<path d="M1 88H12.6958C10.8779 85.2972 9.83624 82.1286 9.83624 78.4386C9.83624 73.8083 11.9241 70.1221 15.1972 67.2635C16.6409 66.0025 18.3173 64.8993 20.1544 63.935C19.9839 63.9878 19.8139 64.041 19.6443 64.0949C11.381 66.7188 4.57486 70.5661 1 76.0317V88Z"/>
<path d="M28.8751 59.0518C25.892 58.4222 22.9512 57.6489 20.1435 56.7073C12.0311 53.9867 4.76636 49.7554 1 43.334V71.6748C5.32225 67.0392 11.7906 63.7915 18.8052 61.5641C22.0424 60.5362 25.4414 59.7086 28.8751 59.0518Z"/>
<path d="M12.5551 78.4386C12.5551 82.1807 13.8166 85.346 16.0831 88H29.1548V63.2689C28.9095 63.3399 28.6655 63.4124 28.4228 63.4864C23.8452 64.8819 19.8434 66.7718 17.0075 69.2486C14.2056 71.6957 12.5551 74.6961 12.5551 78.4386Z"/>
<path d="M15.4952 50.1473C18.1504 52.4147 21.5959 54.1559 25.3784 55.488C23.8982 55.0973 22.4428 54.6658 21.0249 54.1903C9.49272 50.3229 1 43.7696 1 33.0516C1 22.1355 7.79839 14.7747 18.2056 10.0688C22.2879 8.22286 26.8945 6.80411 31.799 5.76052L39.0225 17.4921C34.0447 18.2701 29.3276 19.4443 25.2086 21.0957C16.5319 24.5745 10.1582 30.3466 10.1582 39.2601C10.1582 43.7794 12.2433 47.3702 15.4952 50.1473Z"/>
<path d="M17.0651 7.65349C9.95923 10.8666 4.19066 15.3965 1 21.5226V-3H26.4048L30.3193 3.35745C25.577 4.41791 21.0928 5.83228 17.0651 7.65349Z"/>
<path d="M94.3265 8.23767C90.3112 6.39142 85.8901 4.90606 81.2801 3.76065L85.3333 -3H110.738L110.81 21.81C107.415 15.9873 101.44 11.5087 94.3265 8.23767Z"/>
<path d="M49.5037 34.5142C45.1432 34.8984 40.9047 35.7236 37.3786 37.1399C32.1848 39.2262 28.1884 42.7698 28.1884 48.3383C28.1884 49.8067 28.5393 51.1177 29.1548 52.2789V53.8931C28.9744 53.8413 28.7947 53.7888 28.6158 53.7355C24.0692 52.3802 20.0964 50.5453 17.2829 48.1426C14.5035 45.7691 12.877 42.8687 12.877 39.2601C12.877 31.9176 18.022 26.8524 26.2394 23.5578C30.4305 21.8774 35.3296 20.7034 40.5399 19.9564L49.5037 34.5142Z"/>
<path d="M62.7416 34.6822C66.6094 35.1597 70.4442 36.0426 73.7239 37.3822C78.9417 39.5135 83.245 43.0338 83.245 48.3383C83.245 49.4522 83.0186 50.4721 82.6141 51.4017L82.6268 53.4195C82.9153 53.3357 83.2021 53.2502 83.487 53.1628C88.0425 51.7662 92.0264 49.936 94.8476 47.6073C97.64 45.3024 99.2361 42.566 99.2361 39.2601C99.2361 32.5143 93.7886 27.4259 85.2904 23.9612C81.1387 22.2686 76.3757 21.0191 71.432 20.1869L62.7416 34.6822Z"/>
</mask>
<path d="M82.6443 56.1849L82.6446 56.2397C85.8167 55.5341 88.9119 54.6675 91.8246 53.6196C101.917 49.9885 109.385 44.367 110.851 36.0959L110.832 29.6754C109.406 21.2986 102.668 15.0128 93.1702 10.6458C89.1037 8.77591 84.5789 7.28422 79.8458 6.15302L72.8989 17.7401C77.6618 18.5993 82.2609 19.8437 86.336 21.5051C95.1158 25.0847 101.955 30.8336 101.955 39.2601C101.955 43.5403 99.8395 46.9676 96.6006 49.6411C93.3904 52.2908 89.0233 54.2537 84.2998 55.7018C83.7537 55.8693 83.2015 56.0302 82.6443 56.1849Z" stroke="white" stroke-width="2" mask="url(#path-1-outside-1)"/>
<path d="M56.0566 66.8426C59.6721 66.8426 62.7382 64.5405 63.8078 61.3525C67.2718 61.4203 70.3305 61.4203 73.7291 61.4203L62.6786 79.81H49.0595L37.5668 61.4203C41.103 61.4203 44.8414 61.4203 48.3161 61.384C49.3952 64.5557 52.453 66.8426 56.0566 66.8426Z" stroke="white" stroke-width="2" mask="url(#path-1-outside-1)"/>
<path d="M38.1851 55.817C41.5892 56.332 44.9974 56.6448 48.1734 56.804C49.1004 53.3923 52.2785 50.8786 56.0566 50.8786C59.7547 50.8786 62.8781 53.287 63.878 56.5886C66.8274 56.3676 69.978 56.0174 73.1406 55.5069C75.149 54.7766 76.871 53.8886 78.146 52.8343C79.6945 51.5537 80.5262 50.0849 80.5262 48.3383C80.5262 44.7117 77.6105 41.8528 72.6766 39.8376C69.3391 38.4743 65.3 37.6033 61.2374 37.1911L56.2619 45.49L51.0723 37.0617C46.4287 37.3722 41.9651 38.1738 38.411 39.6013C33.6787 41.5022 30.9073 44.3379 30.9073 48.3383C30.9073 50.2761 31.7692 51.8416 33.3048 53.1553C34.5519 54.2222 36.2285 55.105 38.1851 55.817Z" stroke="white" stroke-width="2" mask="url(#path-1-outside-1)"/>
<path d="M82.8452 88L82.6922 63.776C83.0237 63.8737 83.353 63.9737 83.6799 64.0762C88.2666 65.5144 92.2796 67.3995 95.1229 69.7997C97.9369 72.1753 99.5581 75.0065 99.5581 78.4386C99.5581 82.1017 98.0436 85.2859 95.3721 88H82.8452Z" stroke="white" stroke-width="2" mask="url(#path-1-outside-1)"/>
<path d="M102.277 78.4386C102.277 82.1027 101.043 85.2772 98.9458 88H111L110.964 75.4885C110.229 74.5818 109.39 73.7201 108.458 72.9004C104.624 69.5293 99.2426 66.9043 93.1378 64.9104C92.7329 64.7781 92.3252 64.6488 91.915 64.5223C93.7627 65.4783 95.4483 66.5606 96.8988 67.7851C100.16 70.5379 102.277 74.056 102.277 78.4386Z" stroke="white" stroke-width="2" mask="url(#path-1-outside-1)"/>
<path d="M82.6651 59.4817C86.5273 60.2428 90.3652 61.1999 93.9985 62.3866C100.284 64.4396 106.055 67.2104 110.275 70.9213C110.505 71.124 110.731 71.3297 110.953 71.5383L110.872 43.4237C107.184 49.2739 100.428 53.3592 92.7628 56.1168C89.5542 57.2712 86.1445 58.2108 82.6618 58.9624L82.6651 59.4817Z" stroke="white" stroke-width="2" mask="url(#path-1-outside-1)"/>
<path d="M1 88H12.6958C10.8779 85.2972 9.83624 82.1286 9.83624 78.4386C9.83624 73.8083 11.9241 70.1221 15.1972 67.2635C16.6409 66.0025 18.3173 64.8993 20.1544 63.935C19.9839 63.9878 19.8139 64.041 19.6443 64.0949C11.381 66.7188 4.57486 70.5661 1 76.0317V88Z" stroke="white" stroke-width="2" mask="url(#path-1-outside-1)"/>
<path d="M28.8751 59.0518C25.892 58.4222 22.9512 57.6489 20.1435 56.7073C12.0311 53.9867 4.76636 49.7554 1 43.334V71.6748C5.32225 67.0392 11.7906 63.7915 18.8052 61.5641C22.0424 60.5362 25.4414 59.7086 28.8751 59.0518Z" stroke="white" stroke-width="2" mask="url(#path-1-outside-1)"/>
<path d="M12.5551 78.4386C12.5551 82.1807 13.8166 85.346 16.0831 88H29.1548V63.2689C28.9095 63.3399 28.6655 63.4124 28.4228 63.4864C23.8452 64.8819 19.8434 66.7718 17.0075 69.2486C14.2056 71.6957 12.5551 74.6961 12.5551 78.4386Z" stroke="white" stroke-width="2" mask="url(#path-1-outside-1)"/>
<path d="M15.4952 50.1473C18.1504 52.4147 21.5959 54.1559 25.3784 55.488C23.8982 55.0973 22.4428 54.6658 21.0249 54.1903C9.49272 50.3229 1 43.7696 1 33.0516C1 22.1355 7.79839 14.7747 18.2056 10.0688C22.2879 8.22286 26.8945 6.80411 31.799 5.76052L39.0225 17.4921C34.0447 18.2701 29.3276 19.4443 25.2086 21.0957C16.5319 24.5745 10.1582 30.3466 10.1582 39.2601C10.1582 43.7794 12.2433 47.3702 15.4952 50.1473Z" stroke="white" stroke-width="2" mask="url(#path-1-outside-1)"/>
<path d="M17.0651 7.65349C9.95923 10.8666 4.19066 15.3965 1 21.5226V-3H26.4048L30.3193 3.35745C25.577 4.41791 21.0928 5.83228 17.0651 7.65349Z" stroke="white" stroke-width="2" mask="url(#path-1-outside-1)"/>
<path d="M94.3265 8.23767C90.3112 6.39142 85.8901 4.90606 81.2801 3.76065L85.3333 -3H110.738L110.81 21.81C107.415 15.9873 101.44 11.5087 94.3265 8.23767Z" stroke="white" stroke-width="2" mask="url(#path-1-outside-1)"/>
<path d="M49.5037 34.5142C45.1432 34.8984 40.9047 35.7236 37.3786 37.1399C32.1848 39.2262 28.1884 42.7698 28.1884 48.3383C28.1884 49.8067 28.5393 51.1177 29.1548 52.2789V53.8931C28.9744 53.8413 28.7947 53.7888 28.6158 53.7355C24.0692 52.3802 20.0964 50.5453 17.2829 48.1426C14.5035 45.7691 12.877 42.8687 12.877 39.2601C12.877 31.9176 18.022 26.8524 26.2394 23.5578C30.4305 21.8774 35.3296 20.7034 40.5399 19.9564L49.5037 34.5142Z" stroke="white" stroke-width="2" mask="url(#path-1-outside-1)"/>
<path d="M62.7416 34.6822C66.6094 35.1597 70.4442 36.0426 73.7239 37.3822C78.9417 39.5135 83.245 43.0338 83.245 48.3383C83.245 49.4522 83.0186 50.4721 82.6141 51.4017L82.6268 53.4195C82.9153 53.3357 83.2021 53.2502 83.487 53.1628C88.0425 51.7662 92.0264 49.936 94.8476 47.6073C97.64 45.3024 99.2361 42.566 99.2361 39.2601C99.2361 32.5143 93.7886 27.4259 85.2904 23.9612C81.1387 22.2686 76.3757 21.0191 71.432 20.1869L62.7416 34.6822Z" stroke="white" stroke-width="2" mask="url(#path-1-outside-1)"/>
</svg>
