<svg width="104" height="88" viewBox="0 0 104 88" fill="none" xmlns="http://www.w3.org/2000/svg">
<path d="M123.125 44.8997L123.001 45.2292L123.269 45.457L123.27 45.4577L123.274 45.4609L123.289 45.4743C123.303 45.4862 123.324 45.5041 123.35 45.5271C123.402 45.573 123.476 45.6389 123.562 45.7178C123.735 45.8772 123.948 46.0832 124.127 46.2823C128.946 51.6546 131.509 55.7732 133.212 59.8126C134.946 63.9242 134.737 66.4598 133.853 67.9246C132.969 69.3901 130.818 70.7637 126.359 71.1666C121.99 71.5615 116.129 70.9334 109.093 69.2094C104.949 68.194 100.465 66.8154 95.7285 65.0921C98.1467 64.4438 100.454 63.6357 102.661 62.6563C109.737 59.5158 115.209 54.9917 119.057 49.0798C119.95 47.7085 121.116 45.6542 121.804 44.1689L121.945 43.865L121.717 43.6191C110.482 31.4725 91.5512 19.4003 73.1188 9.24221C56.0911 -0.141698 39.3259 -8.044 28.7749 -10.5763L28.1582 -10.7243V-10.0901V25.3406C23.3297 21.1913 19.1188 17.1097 15.6321 13.2221C10.804 7.83919 7.49897 2.97689 5.79977 -1.05301C4.06613 -5.16457 4.27506 -7.70018 5.15889 -9.16498C6.04312 -10.6304 8.19398 -12.0041 12.6525 -12.407C15.9195 -12.7022 20.0236 -12.4259 24.8352 -11.5443L25.3421 -11.4514L25.4196 -11.9609L25.8678 -14.9081L25.9408 -15.3882L25.463 -15.4751C19.5841 -16.5452 14.4741 -16.7973 10.4339 -16.1369C6.39754 -15.4771 3.35396 -13.8914 1.74008 -11.2167C0.417097 -9.0241 0.193258 -6.32563 0.876095 -3.30005C1.5582 -0.277721 3.15202 3.10938 5.52092 6.73652C10.2315 13.9491 18.0658 22.1997 28.1582 30.5511V92V92.5H28.6582H63.044H63.544V92V67.1759H77.9944C81.6598 67.1759 85.1214 66.9696 88.398 66.5349C100.426 71.4121 111.302 74.3687 119.811 75.0876C124.08 75.4482 127.779 75.2482 130.739 74.4273C133.702 73.6055 135.96 72.1497 137.272 69.9763C139.196 66.7868 138.773 62.58 136.609 57.8128C134.438 53.0313 130.467 47.5696 125.081 41.7567L124.531 41.1634L124.246 41.9204L123.125 44.8997ZM56.943 47.7289L57.3654 47.4612L56.943 47.7289L61.1388 54.3494L54.4915 50.1669L54.2252 50.5901L54.4915 50.1668C54.0921 49.9156 53.5606 50.1322 53.4555 50.5959L51.7227 58.2395L49.9899 50.5959C49.8848 50.1322 49.3533 49.9156 48.954 50.1668L49.2202 50.5901L48.9539 50.1669L42.3066 54.3494L46.5024 47.7289C46.7575 47.3263 46.5345 46.7962 46.073 46.6924L38.4104 44.9677L46.073 43.2431C46.5344 43.1392 46.7575 42.6092 46.5024 42.2066L42.3066 35.5861L48.9539 39.7686L49.2202 39.3454L48.954 39.7686C49.3533 40.0199 49.8848 39.8032 49.9899 39.3395L51.7227 31.696L53.4555 39.3395C53.5606 39.8032 54.0921 40.0199 54.4915 39.7686L54.2252 39.3454L54.4915 39.7686L61.1388 35.5861L56.943 42.2066C56.6879 42.6092 56.911 43.1392 57.3724 43.2431L65.035 44.9677L57.3724 46.6924C56.911 46.7962 56.6879 47.3263 56.943 47.7289ZM39.1084 -10.5414L38.9413 -9.5701C49.1166 -5.96225 61.7534 -0.151847 74.4052 6.82053C92.278 16.6702 110.462 28.9928 122.081 41.0519L122.66 41.6524L122.917 40.8591C124.163 37.0133 124.784 32.8554 124.784 28.3888C124.784 20.5401 122.867 13.6497 119.018 7.73641C115.17 1.82447 109.697 -2.69963 102.621 -5.84017C95.547 -8.97974 87.2634 -10.5414 77.7828 -10.5414H39.1084Z" stroke="white"/>
</svg>
